<svg xmlns="http://www.w3.org/2000/svg" viewBox="0 0 405.77 272.33">
  <g style="isolation: isolate">
    <g id="Calque_2" data-name="Calque 2">
      <g id="OBJECTS">
        <g>
          <g>
            <rect x="125.24" y="207.07" width="70.92" height="63.74" style="fill: #d2d5fb"/>
            <rect x="153.11" y="189.83" width="15.17" height="60.29" transform="translate(380.67 59.27) rotate(90)" style="fill: #babfe8"/>
            <rect x="153.11" y="208.94" width="15.17" height="60.29" transform="translate(399.78 78.38) rotate(90)" style="fill: #babfe8"/>
            <rect x="153.11" y="228.83" width="15.17" height="60.29" transform="translate(419.67 98.27) rotate(90)" style="fill: #babfe8"/>
            <circle cx="160.7" cy="220.41" r="3.01" style="fill: #ebedff"/>
            <path d="M163.71,239.43a3,3,0,1,1-3-3A3,3,0,0,1,163.71,239.43Z" style="fill: #ebedff"/>
            <path d="M163.71,260.46a3,3,0,1,1-3-3A3,3,0,0,1,163.71,260.46Z" style="fill: #ebedff"/>
          </g>
          <g>
            <rect x="72.82" y="21.5" width="130.94" height="89.26" rx="6.86" style="fill: #fff"/>
            <rect x="98.78" y="5.78" width="79.01" height="120.7" rx="1.74" transform="translate(204.42 -72.15) rotate(90)" style="fill: #ebedff"/>
            <g>
              <path d="M196.9,26.62H162.81c1.84,8.87,8.79,37.94,23.27,52.42h12.55V28.36A1.74,1.74,0,0,0,196.9,26.62Z" style="fill: #babfe8"/>
              <polygon points="186.08 79.04 186.08 86.75 198.43 86.75 198.63 79.04 186.08 79.04" style="fill: #d2d5fb"/>
              <path d="M198.63,103.9v-17l-.2-.11H186.08s-5.89,15.23-6.23,18.8l.21.09H196.9A1.74,1.74,0,0,0,198.63,103.9Z" style="fill: #babfe8"/>
            </g>
            <g>
              <path d="M79.94,26.62H114c-1.84,8.87-8.78,37.94-23.27,52.42H78.2V28.36A1.74,1.74,0,0,1,79.94,26.62Z" style="fill: #babfe8"/>
              <polygon points="90.75 79.04 90.75 86.75 78.4 86.75 78.2 79.04 90.75 79.04" style="fill: #d2d5fb"/>
              <path d="M78.2,103.9v-17l.2-.11H90.75S96.64,102,97,105.55l-.2.09H79.94A1.74,1.74,0,0,1,78.2,103.9Z" style="fill: #babfe8"/>
            </g>
          </g>
          <g>
            <rect x="245.94" y="25.56" width="64.77" height="44.15" rx="3.39" style="fill: #d2d5fb"/>
            <g>
              <path d="M310.71,32V29a3.39,3.39,0,0,0-3.39-3.39h-58A3.39,3.39,0,0,0,245.94,29v3Z" style="fill: #babfe8"/>
              <rect x="249.75" y="38.16" width="10.52" height="10.49" rx="0.81" style="fill: #ebedff"/>
              <rect x="265.35" y="38.16" width="10.52" height="10.49" rx="0.81" style="fill: #fff"/>
              <rect x="280.86" y="38.16" width="10.52" height="10.49" rx="0.81" style="fill: #babfe8"/>
              <rect x="295.85" y="38.16" width="10.52" height="10.49" rx="0.81" style="fill: #ebedff"/>
              <rect x="249.75" y="52.8" width="10.52" height="10.49" rx="0.81" style="fill: #babfe8"/>
              <rect x="265.35" y="52.8" width="10.52" height="10.49" rx="0.81" style="fill: #ebedff"/>
              <rect x="280.86" y="52.8" width="10.52" height="10.49" rx="0.81" style="fill: #fff"/>
              <rect x="295.85" y="52.8" width="10.52" height="10.49" rx="0.81" style="fill: #ebedff"/>
            </g>
          </g>
          <g>
            <rect x="199.72" y="160.09" width="206.05" height="7.52" style="fill: #d2d5fb"/>
            <rect x="212.26" y="167.61" width="176.86" height="103.58" style="fill: #d2d5fb"/>
            <rect x="212.26" y="167.61" width="176.86" height="11.05" style="fill: #babfe8"/>
          </g>
          <g>
            <circle cx="357.59" cy="23.21" r="23.21" transform="translate(88.32 259.65) rotate(-45)" style="fill: #d2d5fb"/>
            <g>
              <circle cx="357.59" cy="23.21" r="17.1" style="fill: #ebedff"/>
              <path d="M352.21,30.69a.77.77,0,0,1-.58-.27.76.76,0,0,1,.08-1.07l5.3-4.58v-12a.77.77,0,0,1,1.53,0v12.4a.74.74,0,0,1-.27.57l-5.56,4.81A.78.78,0,0,1,352.21,30.69Z" style="fill: #d2d5fb"/>
            </g>
          </g>
          <g>
            <rect x="217.67" y="92.49" width="79.36" height="49.22" rx="6.1" style="fill: #d2d5fb"/>
            <path d="M293,92.85a6.1,6.1,0,0,0-4,5.73v37a6.1,6.1,0,0,0,4,5.73,6.09,6.09,0,0,0,4-5.73v-37A6.09,6.09,0,0,0,293,92.85Z" style="fill: #babfe8"/>
            <path d="M271,154.53h-8.84v-33.4H244.52v38.56H271a2.58,2.58,0,0,0,0-5.16Z" style="fill: #babfe8"/>
            <path d="M270.83,154.53h-8.7v-33.4H244.52v33.4h0a5.16,5.16,0,0,0,5.16,5.16H271a2.58,2.58,0,0,0,2.58-2.72A2.68,2.68,0,0,0,270.83,154.53Z" style="fill: #babfe8"/>
            <path d="M273.55,157.11a2.57,2.57,0,0,0-2.58-2.58h-8.84v-33.4h-6v33.4a5.16,5.16,0,0,0,5.16,5.16H271A2.58,2.58,0,0,0,273.55,157.11Z" style="fill: #9ba3d3"/>
            <path d="M273.89,96.18H234.74A1.72,1.72,0,0,0,233,97.89h0a1.71,1.71,0,0,0,1.71,1.71h39.15a1.7,1.7,0,0,0,1.71-1.71h0A1.71,1.71,0,0,0,273.89,96.18Z" style="fill: #babfe8"/>
          </g>
          <rect x="314.96" y="144.39" width="65.92" height="15.81" style="fill: #babfe8"/>
          <rect x="308.62" y="133.35" width="67.96" height="11.05" style="fill: #d2d5fb"/>
          <rect x="315.24" y="119.49" width="65.15" height="13.83" style="fill: #d2d5fb"/>
          <rect x="315.24" y="128.48" width="65.15" height="4.85" style="fill: #babfe8"/>
          <g>
            <g>
              <path d="M58.5,220.16l1.15.25a22.62,22.62,0,0,0,.58-15c-3.37-10-5-22.55-11.45-32-8.83-12.9-11-40.94-11-40.94s-10.74,22.24-3.42,43.21,16,26.47,20.37,30.56C59.45,210.57,59.36,216.25,58.5,220.16Z" style="fill: #babfe8"/>
              <path d="M58.74,220.22l.91.19a22.62,22.62,0,0,0,.58-15c-3.37-10-5-22.55-11.45-32-8.83-12.9-11-40.94-11-40.94s-5.94,30,.94,40.54,7.2,8,12.14,18,6.5,12.88,8,18.71A24.26,24.26,0,0,1,58.74,220.22Z" style="fill: #9ba3d3"/>
            </g>
            <g>
              <path d="M64.2,228.36s2.19-3.28.9-15.51-4.8-23.92-2.83-37.26,16.51-47.15,16.59-49.39,3.85,38.92-3.66,55.32-8.45,22-8.24,30.58-.27,15.43-1.1,17.43Z" style="fill: #babfe8"/>
              <path d="M65.85,203.67c.78,5.46,1.11,19.16-.29,22.47-.13.3-.31.13-.53-.43.45-2.27.77-6.25.07-12.86-1.28-12.23-4.8-23.92-2.83-37.26s16.51-47.15,16.59-49.39c0,0-2.49,28-9.89,47.36A57,57,0,0,0,65.85,203.67Z" style="fill: #9ba3d3"/>
            </g>
            <g>
              <path d="M72.07,225.77s-6.37-17.55,4.27-32.69,27.68-34.55,28-42.27c0,0,4.52,36.67-9.37,47S71.33,209.74,73.8,225.71Z" style="fill: #babfe8"/>
              <path d="M87,190.4c-15.47,12.51-16.69,27-14.26,33.7a1.6,1.6,0,0,0,1,1C71.59,209.7,81.26,208,95,197.8c13.89-10.32,9.37-47,9.37-47S102.45,177.89,87,190.4Z" style="fill: #9ba3d3"/>
            </g>
            <g>
              <path d="M53,230l-3.51-12.67C36.5,171.12,0,169.59,0,169.59c3.81.76,23.62,15.85,26.69,29.29,1.44,6.31,7.88,10.79,13.58,13.76A16.92,16.92,0,0,1,48.68,223c1.08,3.81,1.66,7.18,1.66,7.18Z" style="fill: #babfe8"/>
              <path d="M33.19,199.52C37.46,207.7,43,211,47.88,212.15,33.67,171,0,169.59,0,169.59a14.32,14.32,0,0,1,3.9,2C10.92,175.53,25.66,185.06,33.19,199.52Z" style="fill: #9ba3d3"/>
            </g>
            <g>
              <path d="M80.56,218.93H42.42a7.32,7.32,0,0,0-7.21,8.6l6.85,38.62a5.69,5.69,0,0,0,5.6,4.7H75.31a5.7,5.7,0,0,0,5.61-4.7l6.85-38.62A7.33,7.33,0,0,0,80.56,218.93Z" style="fill: #d2d5fb"/>
              <path d="M87.61,224.26a7.33,7.33,0,0,0-7-5.33H42.42a7.32,7.32,0,0,0-7.05,5.33Z" style="fill: #babfe8"/>
              <path d="M80.56,218.93H70.83a7.33,7.33,0,0,1,7.21,8.6l-6.85,38.62a5.7,5.7,0,0,1-5.61,4.7h9.73a5.7,5.7,0,0,0,5.61-4.7l6.85-38.62A7.33,7.33,0,0,0,80.56,218.93Z" style="fill: #babfe8"/>
            </g>
          </g>
          <g>
            <g>
              <g>
                <path d="M337.64,91.07c3.28.56,18.9,3.24,22,5.36,2.62,1.83,15.33,39,12.65,40.95s-18.61,3.72-18.61,3.72l1.79,13.43-18.23,4.15a33.25,33.25,0,0,1-13.33.28l-15.34-2.8,3.12-38.73-20.42,11.73a3.09,3.09,0,0,1-4.13-1.25L265.35,90.29l6.15-2.9,18.71,22.44,18-14.29s4.06-2.83,19-4.1Z" style="fill: #ba95f4"/>
                <path d="M271,87.78s-3.16-6.48-4.29-6.8-.1,2.61-.1,2.61-3.94-3-7-2.59,5.74,6,6.62,9C266.22,90.05,271.23,87.8,271,87.78Z" style="fill: #ffa683"/>
                <g>
                  <g>
                    <rect x="285.03" y="110.66" width="38.76" height="25.6" rx="3.17" transform="translate(608.81 246.93) rotate(180)" style="fill: #fff"/>
                    <path d="M305.65,136.27h27.44a2.68,2.68,0,0,0,2.68-2.68v.29a2.68,2.68,0,0,0-2.68-2.68H305.65a2.68,2.68,0,0,0-2.68,2.68v-.29A2.68,2.68,0,0,0,305.65,136.27Z" style="fill: #fff"/>
                    <path d="M326.92,131.2v1.9a3.18,3.18,0,0,1-3.15,3.17h-3.13a3.17,3.17,0,0,0,3.14-3.17v-1.9Z" style="fill: #e6e1ef"/>
                  </g>
                  <path d="M298.46,125a4.42,4.42,0,1,1,4.42,4.43A4.42,4.42,0,0,1,298.46,125Z" style="fill: #e6e1ef"/>
                </g>
                <path d="M352.93,124l-3.7-15.94,7.12,18.58a2.74,2.74,0,0,1-2.05,3.72l-18.61,4.22,14.56-5.69A4.07,4.07,0,0,0,352.93,124Z" style="fill: #7327cc;opacity: 0.42;mix-blend-mode: multiply"/>
                <polygon points="353.39 141.19 331.63 143.08 331.34 135.61 354.3 130.36 353.39 141.19" style="fill: #ba95f4"/>
                <path d="M345,144.4c.51.24,1.12,6.49,1.57,12.18l8.64-2-1.78-13.42-21.75,1.89S344,144,345,144.4Z" style="fill: #7327cc;opacity: 0.42;mix-blend-mode: multiply"/>
                <path d="M331.58,141.26s-3.82,1.25-8.59-3.54a.81.81,0,0,1,.57-1.39l7.72-.06Z" style="fill: #ffa683"/>
              </g>
              <g>
                <g>
                  <path d="M353.66,261l-10.76-.17c-2.06-7.43-12.33-85.73-12.33-85.73l-13.4,28.59,6.57,57.11-10.05.06s-15.8-49.36-15.8-59.64c0-7.83,7.9-33.15,11.65-44.77l.3-.08,14,2.56a33.07,33.07,0,0,0,13.33-.29l16.41-3.73,0,0C355.27,176.4,353.66,261,353.66,261Z" style="fill: #5725a5"/>
                  <path d="M353.66,261s.78-38.64.73-70v-3c0-.41,0-.83,0-1.24-.05-13.59-.26-25.5-.74-31.88l-7.11,1.62h0l3.35,104.28,3.65.15Z" style="fill: #441982;opacity: 0.35000000000000003;mix-blend-mode: multiply"/>
                  <polygon points="320.99 260.93 323.74 260.83 317.17 203.72 330.57 175.13 310.96 203.04 320.99 260.93" style="fill: #441982"/>
                </g>
                <path d="M314.51,260.85c-2.41,4.82-13.68,7.17-13.68,7.17a3.12,3.12,0,0,0,.44,3.25c1.27,1.82,13.12.81,14.61.5a5.18,5.18,0,0,0,2.51-1.51,8.33,8.33,0,0,0,1.54,1.36c.56.27,3.59-.31,3.59-.31.72-1.92.08-9.29-.11-10.46Z" style="fill: #441982"/>
                <path d="M343.57,260.85c-2.41,4.82-13.68,7.17-13.68,7.17a3.09,3.09,0,0,0,.44,3.25c1.27,1.82,13.12.81,14.6.5a5.18,5.18,0,0,0,2.52-1.51,8.33,8.33,0,0,0,1.54,1.36c.56.27,3.58-.31,3.58-.31.73-1.92.09-9.29-.11-10.46Z" style="fill: #441982"/>
              </g>
              <g>
                <g>
                  <path d="M336.32,82v9L331,94.78l-3.58-3.45.08-3.7a7,7,0,0,0,1.38.13,7.52,7.52,0,0,0,7.21-5.82A.86.86,0,0,0,336.32,82Z" style="fill: #ffa683"/>
                  <path d="M338.47,76.14a1.7,1.7,0,0,0-2.27-.22l0,0c-3.12-.74-7.46-4-7.46-4a51.64,51.64,0,0,1-7.26,3.36V80a7.63,7.63,0,0,0,7.45,7.8,7.54,7.54,0,0,0,7.21-5.83C338.66,82.29,339.51,77.24,338.47,76.14Z" style="fill: #ffa683"/>
                  <path d="M336.34,85.48h0V82c2.39,0,3.16-4.75,2.15-5.83a1.7,1.7,0,0,0-2.27-.21l-.05,0a69.22,69.22,0,0,1-7.43-2.44,12.54,12.54,0,0,1-7.28,1.76,6.7,6.7,0,0,1-5.16-7.17c.17-5.54,15.09-12,23.33-3C342.84,68.69,344.74,84,336.34,85.48Z" style="fill: #441982"/>
                </g>
                <path d="M328.89,87.76a7,7,0,0,1-1.38-.15l-.08,3.72,2.31,2.22V89.2c5.95,0,6.36-7.26,6.36-7.26A7.52,7.52,0,0,1,328.89,87.76Z" style="fill: #f48260"/>
                <path d="M336.2,75.92l-.05,0a9.08,9.08,0,0,1-1.34-.44c.15,1.89.21,6.6-2.33,9.14-.61-.79-2-2.45-3.36-2.71A15.6,15.6,0,0,0,325,82a1.91,1.91,0,0,0-1.06.5l-1.3,1.23a7.06,7.06,0,0,1-.88-1.51,7.37,7.37,0,0,0,14.34-.29,1.6,1.6,0,0,0,.62,0h0Zm-6,8.92c-3.09,1.45-5.23.29-5.8-.43a.44.44,0,0,1,0-.57l.53-.57c.59-.65,2.51-.41,3.32-.41a3,3,0,0,1,1.95,1.22C330.39,84.28,330.42,84.73,330.18,84.84Z" style="fill: #441982"/>
              </g>
            </g>
            <g>
              <path d="M245.17,260.83c-1.33-39.47-6.54-111.75-6.54-111.75H199.27s-5.21,72.28-6.54,111.75h11.2s12.72-84.9,15.18-92.67c2.47,7.77,14.87,92.67,14.87,92.67Z" style="fill: #5725a5"/>
              <path d="M245.17,260.83h-3.5L230.23,149.08h8.4S243.85,221.37,245.17,260.83Z" style="fill: #5725a5"/>
              <path d="M245.17,260.83h-3.5L230.23,149.08h8.4S243.85,221.37,245.17,260.83Z" style="fill: #441982;opacity: 0.35000000000000003;mix-blend-mode: multiply"/>
              <path d="M194,260.85c-2.41,4.82-13.67,7.17-13.67,7.17a3.09,3.09,0,0,0,.44,3.25c1.27,1.82,13.11.81,14.6.5a5.18,5.18,0,0,0,2.52-1.51,8.33,8.33,0,0,0,1.54,1.36c.55.27,3.58-.31,3.58-.31.73-1.92.08-9.29-.11-10.46Z" style="fill: #441982"/>
              <path d="M243.75,260.85c2.41,4.82,13.68,7.17,13.68,7.17a3.12,3.12,0,0,1-.44,3.25c-1.27,1.82-13.12.81-14.61.5a5.18,5.18,0,0,1-2.51-1.51,8.33,8.33,0,0,1-1.54,1.36c-.56.27-3.59-.31-3.59-.31-.72-1.92-.08-9.29.11-10.46Z" style="fill: #441982"/>
              <g>
                <polygon points="227.22 86.55 224.55 85.77 220.41 85.77 219.28 85.77 215.14 85.77 212.47 86.55 205.81 148.85 219.28 148.85 220.41 148.85 233.88 148.85 227.22 86.55" style="fill: #fff"/>
                <path d="M212.47,86.55S196,91.15,193.29,95c-2.49,3.58-12,23.14-11.38,34.78a2.17,2.17,0,0,0,2.44,2L197,129l-4.55,25.11s13,2.61,20.29,2.16Z" style="fill: #7327cc"/>
                <path d="M227.22,86.55s16.52,4.6,19.18,8.42c2.49,3.58,12.28,22.35,11.64,34a2.18,2.18,0,0,1-2.45,2l-12.85-2,4.55,25.11s-12.87,2.94-20.19,2.5Z" style="fill: #7327cc"/>
                <path d="M224.52,92.22l-4.62-2.57-4.29,2.57L218.34,96s-2.61,38.63-2.71,42.76c0,.62,1.61,2.64,3.1,4.34.41.48.82.93,1.17,1.31.35-.39.75-.83,1.16-1.31,1.49-1.7,3.12-3.72,3.1-4.34-.1-4.13-2.42-42.62-2.42-42.62Z" style="fill: #ba95f4"/>
                <polygon points="196.94 129.01 235.86 122.47 233.75 113.43 189.35 117.75 196.94 129.01" style="fill: #7327cc"/>
                <path d="M235.27,121.51s5.69-1.85,7.61-1.56,1-6.32-9.13-6.52Z" style="fill: #ffa683"/>
                <path d="M210.13,115.61a11,11,0,0,0-8.37-2.93c-2.82.24-4.94,4.21-4.94,4.21Z" style="fill: #ffa683"/>
                <polygon points="195.23 138.5 212.54 126.4 196.94 129.01 195.23 138.5" style="fill: #441982;opacity: 0.35000000000000003;mix-blend-mode: multiply"/>
                <polygon points="196.82 116.89 193.7 116.81 200.02 107.16 196.82 116.89" style="fill: #441982;opacity: 0.35000000000000003;mix-blend-mode: multiply"/>
                <path d="M243,120s3.23.06,3.57-.45-4.06-11.32-4.06-11.32S245.76,119.06,243,120Z" style="fill: #441982;opacity: 0.35000000000000003;mix-blend-mode: multiply"/>
                <path d="M247.29,154.12l-2.57-14.22h0l-2-10.89-15.59-2.72v.88l11.45,8.3L242,155.18C245.09,154.62,247.29,154.12,247.29,154.12Z" style="fill: #441982;opacity: 0.35000000000000003;mix-blend-mode: multiply"/>
              </g>
              <path d="M219,168.15h0a12,12,0,0,0-4.13,7.15L200,260.83h3.93S214.42,189.42,219,168.15Z" style="fill: #441982"/>
              <g>
                <polygon points="223.99 85.41 220.06 87.81 215.86 85.41 215.86 77.56 223.99 77.56 223.99 85.41" style="fill: #ffa683"/>
                <path d="M209.58,71.23s-1.63-6.08,0-9.15,4.52-6.47,7.3-4.55c0,0,1.67-2.19,7.56-.76s8.8,1.48,10.91.38.49,9.72-3.87,10.35c0,0-.35,2.82-1.21,3.83s-11.4,1.53-11.4,1.53Z" style="fill: #441982"/>
                <path d="M218.06,63.33c-.31-.34-.9,1.14-2.32,2.36a16.59,16.59,0,0,1-3.9,2.39V74s1.22,8,8.4,8c5.91,0,8-7.94,8-7.94V67.11S221.22,66.86,218.06,63.33Z" style="fill: #ffa683"/>
                <path d="M224,80.67v1.62a6.31,6.31,0,0,1-3.75,1.24,7.65,7.65,0,0,1-4.38-1.27V80.65a7.65,7.65,0,0,0,4.38,1.27A6.25,6.25,0,0,0,224,80.67Z" style="fill: #f48260"/>
                <path d="M215.25,71.94a2.87,2.87,0,0,0-5.73,0,3.72,3.72,0,0,0,3.32,3.34C214.42,75.28,215.25,73.52,215.25,71.94Z" style="fill: #ffa683"/>
                <path d="M225.54,71.94a2.87,2.87,0,0,1,5.73,0A3.73,3.73,0,0,1,228,75.28C226.37,75.28,225.54,73.52,225.54,71.94Z" style="fill: #ffa683"/>
              </g>
            </g>
            <g>
              <g>
                <path d="M107.05,262.87v6.46a2.86,2.86,0,0,1-2.7,3H84.79a1.2,1.2,0,0,1-.58-2.16c2.59-1.85,11.14-4.52,13.85-6.37Z" style="fill: #7327cc"/>
                <path d="M112.43,198.38c-1.29,17.29-4.73,62.46-5.62,65-1.1,3.13-9.75,1.46-9.2.55.19-.31,1.83-.5,3-3,.35-.76.23-5.53.17-6.36-.55-7.66-3.35-47.06-4.14-58.93A74.16,74.16,0,0,0,112.43,198.38Z" style="fill: #ffa683"/>
              </g>
              <g>
                <path d="M120.44,262.87v6.46a2.86,2.86,0,0,0,2.7,3H142.7a1.2,1.2,0,0,0,.58-2.16c-2.58-1.85-11.14-4.52-13.85-6.37Z" style="fill: #7327cc"/>
                <path d="M129.88,263.93c.54.91-8.1,2.58-9.2-.55-.88-2.53-4.31-47.56-5.61-64.9a50.32,50.32,0,0,0,15.75-2.16c-.85,12.61-3.56,50.74-4.09,58.26,0,.83-.18,5.6.17,6.36C128,263.43,129.69,263.62,129.88,263.93Z" style="fill: #ffa683"/>
              </g>
              <path d="M93,143.68l.15.22-.89,1.89C92.5,145,92.75,144.33,93,143.68Z" style="fill: #ba95f4"/>
              <g>
                <path d="M138.25,193.15c-21.66,12-48.92,0-48.92,0a93.49,93.49,0,0,1,2.9-47.33l0,0c.25-.76.5-1.46.74-2.11a45.71,45.71,0,0,1,2.1-4.88h0c1.18.78,15.69,9.87,35.47,0H131l0,0a1,1,0,0,0,0-.12l0,0H131C141.13,164.34,138.25,193.15,138.25,193.15Z" style="fill: #7327cc"/>
                <path d="M138.25,193.15a42,42,0,0,1-12.09,4.35c5.28-14.19.46-46-1.31-56.3a45.79,45.79,0,0,0,5.72-2.4H131l0,0a1,1,0,0,0,0-.12l0,0H131C141.13,164.34,138.25,193.15,138.25,193.15Z" style="fill: #441982;opacity: 0.35000000000000003;mix-blend-mode: multiply"/>
              </g>
              <path d="M112.43,198.38c-1.29,17.28-4.73,62.46-5.62,65a2.8,2.8,0,0,1-2.17,1.58c3.45-11.47,3.13-65.12,3.13-65.12-3.59.11-8.06-1.69-11.09-3-.09-1.29,0-.19-.06-1.15A73.93,73.93,0,0,0,112.43,198.38Z" style="fill: #f48260"/>
              <path d="M126.9,260.94c-.35-.76-.22-5.53-.17-6.36.54-7.52,3.24-45.65,4.09-58.26-.63.2-1.27.37-1.91.54l-1,.26-1.12.25a52.53,52.53,0,0,1-11.7,1.11c0,.4.06.83.09,1.27a92,92,0,0,0,10.91-.57c-.52,9.82-3,59.67-1.29,63,.49,1,2,1.8,4,2.5.8-.24,1.27-.53,1.13-.76S128,263.43,126.9,260.94Z" style="fill: #f48260"/>
              <g>
                <path d="M163,90.8s3.39-5.35,4.41-5.52-.17,2.29-.17,2.29S171,85.32,173.69,86s-5.6,4.71-6.67,7.25C167,93.25,162.87,90.8,163,90.8Z" style="fill: #ffa683"/>
                <path d="M97.4,148.54c0-.43-4.11-3.84-4.4-4l-.11-.16-2.62,5.46s6.33,5.31,7,4.79c.43-.36-1.08-2.73-2.17-6C96.14,148.52,97.4,148.85,97.4,148.54Z" style="fill: #ffa683"/>
                <g>
                  <path d="M132.34,114a10.63,10.63,0,0,1,1.16,5.28,7.1,7.1,0,0,1-2.16,4.55,7.65,7.65,0,0,0-.72.8l-.15.2c-3.79,5.18-.19,12.68.4,13.82a.36.36,0,0,0,.06.11.16.16,0,0,1,0,0h-.37c-19.78,9.87-34.3.78-35.47,0H95l0,0c.33-.61,4.41-8.53.45-13.93a8,8,0,0,0-.86-1c-3.17-3.18-2.29-8.28-1-11l-11,15.47L93.14,143.9l-3,6.37S69.2,130.46,69.51,129,86.24,98.47,91.68,94.6,108,90.21,108,90.21h7.94s8.1-.41,14.77,4.29l13.81,13.77,18-17.77,4.79,2.9s-16.29,22-22.08,28.66a2.61,2.61,0,0,1-3.72.22Z" style="fill: #ba95f4"/>
                  <path d="M144.46,120.53c-3.4,2.62-17.81-15.68-15.5-11.66s-1.8,9.22-5.47,18.19c-3.17,7.75.16,12.94,1.12,14.21a45.49,45.49,0,0,0,6-2.47h.37a.16.16,0,0,0,0,0,.36.36,0,0,1-.06-.11c-.59-1.14-4.19-8.64-.4-13.82l.15-.2a7.65,7.65,0,0,1,.72-.8,7.1,7.1,0,0,0,2.16-4.55,10.63,10.63,0,0,0-1.16-5.28l9.18,8.28a2.61,2.61,0,0,0,3.72-.22c5.79-6.61,22.08-28.66,22.08-28.66C167.27,93.12,148.28,117.59,144.46,120.53Z" style="fill: #976cea"/>
                  <g>
                    <path d="M93.66,112.8s2-6.33,3.35-7.82c0,0-16.4,21-17.17,23.36s13.3,15.56,13.3,15.56L82.69,128.27Z" style="fill: #976cea"/>
                    <path d="M93.66,112.8a12.46,12.46,0,0,0-.91,2.71Z" style="fill: #976cea"/>
                  </g>
                  <g style="opacity: 0.25;mix-blend-mode: overlay">
                    <path d="M119.91,90.45H105.28a51.59,51.59,0,0,0-6.09,1.07h25.45A28.55,28.55,0,0,0,119.91,90.45Z" style="fill: #fff"/>
                    <polygon points="162.53 90.5 161.49 91.53 164.22 91.53 162.53 90.5" style="fill: #fff"/>
                    <path d="M165.4,96H157l-1.09,1.07h8.73Z" style="fill: #fff"/>
                    <path d="M132.18,96h-42c-.3.32-.61.68-.94,1.07h44Z" style="fill: #fff"/>
                    <path d="M161.27,101.51h-9.91l-1.08,1.07h10.19Z" style="fill: #fff"/>
                    <path d="M137.73,101.51H85.89l-.74,1.07H138.8Z" style="fill: #fff"/>
                    <path d="M143.27,107H82.21l-.68,1.06h62.81Z" style="fill: #fff"/>
                    <path d="M157.1,107H145.76l-1.09,1.06h11.62Z" style="fill: #fff"/>
                    <path d="M93.66,112.8c-.12.25-.24.54-.35.83H152l.83-1.07H78.76c-.22.36-.43.72-.65,1.07h15Z" style="fill: #fff"/>
                    <path d="M89.91,118.09H75.47l-.62,1.07h14.3Z" style="fill: #fff"/>
                    <path d="M138.06,119.16h9.61l.86-1.07H136.87Z" style="fill: #fff"/>
                    <path d="M92.52,119.16h41a7.63,7.63,0,0,0,0-1.07h-41A9.73,9.73,0,0,0,92.52,119.16Z" style="fill: #fff"/>
                    <path d="M86,123.62H72.31c-.21.37-.4.72-.59,1.07H85.23Z" style="fill: #fff"/>
                    <path d="M94.63,123.83a7.57,7.57,0,0,1,.75.86h35.2l0-.06a7.65,7.65,0,0,1,.72-.8l.19-.21H94.44C94.51,123.68,94.56,123.76,94.63,123.83Z" style="fill: #fff"/>
                    <path d="M83.27,129.14H69.54a3.81,3.81,0,0,0,.68,1.07H84Z" style="fill: #fff"/>
                    <path d="M97.2,130.21h31.57a9.77,9.77,0,0,1,.07-1.07H97.13A9.77,9.77,0,0,1,97.2,130.21Z" style="fill: #fff"/>
                    <path d="M96.3,135.74h33.37c-.11-.34-.21-.7-.32-1.07H96.62C96.52,135,96.41,135.4,96.3,135.74Z" style="fill: #fff"/>
                    <path d="M87,134.67H74.23l1,1.07H87.68Z" style="fill: #fff"/>
                    <path d="M100.23,141.27h24.41c.93-.32,1.89-.68,2.85-1.07H97.66C98.38,140.54,99.24,140.9,100.23,141.27Z" style="fill: #fff"/>
                    <path d="M90.66,140.2h-11c.37.35.73.71,1.09,1.07H91.38Z" style="fill: #fff"/>
                    <path d="M92.27,145.72H85.36l1.11,1.07h5.3Z" style="fill: #fff"/>
                  </g>
                </g>
              </g>
              <g>
                <g>
                  <polygon points="115.35 90.61 111.69 92.83 107.79 90.61 107.79 83.3 115.35 83.3 115.35 90.61" style="fill: #ffa683"/>
                  <path d="M115.35,86.2v4.41l-.91.55c0-.19.06-.38.1-.56C114.89,88.59,115.2,87,115.35,86.2Z" style="fill: #ffa683"/>
                  <path d="M119.33,74.44V80s-1.11,4.15-4,6.23C115.76,83.85,118.84,77,119.33,74.44Z" style="fill: #ffa683"/>
                  <path d="M115.35,86.2v1.5a5.89,5.89,0,0,1-3.5,1.15,7.07,7.07,0,0,1-4.06-1.18v-1.5a7.07,7.07,0,0,0,4.06,1.18A5.89,5.89,0,0,0,115.35,86.2Z" style="fill: #f48260"/>
                  <path d="M119.45,75.42h-.12V73.59s-10.56.66-12.47-3.58c-.17-.38-2.81,4.48-2.81,4.48v1a2.65,2.65,0,0,0-2.16,2.61,3.54,3.54,0,0,0,2.43,3c.63,2.07,2.51,6.27,7.53,6.27,4.11,0,6.24-4.09,7.07-6.18H119a3.46,3.46,0,0,0,3.09-3.1A2.67,2.67,0,0,0,119.45,75.42Z" style="fill: #ffa683"/>
                </g>
                <path d="M118.9,81.22a.28.28,0,0,1,.13,0,3.45,3.45,0,0,0,3.08-3.1,2.66,2.66,0,0,0-2.66-2.66h-.12V73.59s-10.56.66-12.47-3.58c-.17-.39-2.81,4.48-2.81,4.48v1a2.68,2.68,0,0,0-2.17,2.62,3.56,3.56,0,0,0,2.45,3,9.36,9.36,0,0,0,3.46,5.09v3.09C95.09,81.62,96.56,65,102.91,61.84c2.84-1.4,4.22-.26,4.22-.26,10-8.75,18,1.54,20.46,5.47,3.33,5.38,16.79,40.62,2.82,45.36-25.56,8.68-17.52-23.68-15.07-26.2C117.44,84,118.67,82.14,118.9,81.22Z" style="fill: #441982"/>
              </g>
            </g>
          </g>
        </g>
      </g>
    </g>
  </g>
</svg>
